<svg width="188" height="150" viewBox="0 0 188 150" fill="none" xmlns="http://www.w3.org/2000/svg">
<g clip-path="url(#clip0_170_1087)">
<path d="M158.34 143.369C159.08 143.415 159.489 142.496 158.929 141.961L158.873 141.739C158.88 141.722 158.888 141.704 158.895 141.686C159.336 140.634 160.552 140.135 161.606 140.572C164.942 141.95 161.42 145.118 161.685 147.262C161.778 148.002 164.677 148.042 164.513 148.768C166.054 145.399 166.865 141.72 166.864 138.02C166.863 137.091 166.812 136.161 166.708 135.234C166.622 134.476 166.504 133.722 166.351 132.975C165.524 128.938 163.734 125.094 161.154 121.883C159.915 121.206 160.671 120.146 160.046 118.877C159.821 118.419 157.819 118.409 157.736 117.907C157.825 117.919 159.12 116.575 158.692 115.911C158.411 115.474 158.498 114.917 158.86 114.543C158.895 114.507 158.929 114.468 158.959 114.426C160.027 112.979 161.498 113.231 162.267 115.198C163.908 116.025 163.925 117.398 162.918 118.719C162.278 119.559 162.19 120.696 161.629 121.596C161.686 121.67 161.747 121.741 161.804 121.815C162.865 123.175 163.783 124.636 164.556 126.171C164.337 124.465 164.659 122.409 165.209 121.084C165.839 119.563 167.024 118.283 168.062 116.968C169.302 115.397 171.826 116.11 172.045 118.099C172.047 118.118 172.05 118.137 172.052 118.156C171.898 118.243 171.748 118.335 171.601 118.432C170.763 118.986 171.053 120.285 172.046 120.437L172.069 120.441C172.013 120.993 170.052 122.734 169.913 123.273C171.24 128.395 170.247 129.072 166.165 129.157L165.951 129.463C166.338 130.574 166.649 131.713 166.883 132.866C167.103 133.937 167.256 135.019 167.342 136.105C167.449 137.477 167.44 138.855 167.325 140.224L167.332 140.175C167.625 138.667 168.443 137.259 169.632 136.283C171.402 134.828 173.904 134.291 175.814 133.122C176.734 132.558 177.912 133.285 177.752 134.351L177.745 134.402C177.46 134.518 177.183 134.652 176.914 134.803C176.761 134.889 176.61 134.982 176.463 135.079C175.625 135.633 175.916 136.932 176.909 137.084L176.931 137.087C176.948 137.089 176.961 137.092 176.978 137.094C176.49 138.253 171.844 139.887 170.993 140.815C170.166 145.289 170.572 145.156 166.764 143.854H166.762C166.346 145.667 165.738 147.438 164.957 149.127L158.504 149.129C158.481 149.057 158.46 148.983 158.439 148.911C159.036 148.948 159.637 148.913 160.225 148.804C159.746 148.217 159.267 147.626 158.788 147.038C158.776 147.027 158.767 147.015 158.758 147.004L158.75 146.995L158.086 144.808C158.139 144.323 158.224 143.842 158.34 143.369Z" fill="#F2F2F2"/>
<path d="M90.1485 149.076L33.0477 149.096C30.1791 149.097 27.6095 147.615 26.1743 145.132C25.4566 143.89 25.0977 142.528 25.0973 141.166C25.0968 139.804 25.4549 138.441 26.1716 137.199L54.7038 85.2721C56.1374 82.7879 58.706 81.3043 61.5746 81.3033C64.4432 81.3023 67.0128 82.7841 68.4482 85.2674L97.02 137.181C97.7358 138.419 98.0938 139.78 98.0939 141.141C98.0939 142.503 97.7359 143.865 97.0191 145.108C95.5857 147.592 93.0171 149.075 90.1485 149.076ZM25.815 141.165C25.8149 142.405 32.1158 139.733 32.7686 140.862C34.0743 143.121 30.4376 148.381 33.0474 148.38C33.0474 148.38 95.0947 147.01 96.3988 144.75C97.0508 143.62 97.3766 142.38 97.3762 141.141C97.3758 139.901 97.0491 138.662 96.3961 137.533L67.8243 85.6191C66.5222 83.3665 64.1847 82.0184 61.5749 82.0193C58.9663 82.0202 25.8151 139.925 25.815 141.165Z" fill="#3F3D56"/>
<path d="M90.7826 148.36C90.0669 149.792 123.589 149.352 123.985 149.352C123.985 149.352 133.408 149.144 133.606 148.801C133.705 148.629 133.754 148.441 133.754 148.253C133.754 148.065 133.704 147.876 133.605 147.705L129.266 139.822C129.069 139.479 128.714 139.275 128.317 139.275C128.301 139.275 128.277 139.29 128.245 139.318C122.457 144.488 115.324 147.907 107.563 148.022C99.3096 148.145 90.8281 148.269 90.7826 148.36Z" fill="#3F3D56"/>
<path d="M2.68039e-08 149.313C8.23887e-05 149.549 0.189948 149.739 0.426302 149.739L187.456 149.674C187.692 149.674 187.882 149.484 187.882 149.248C187.882 149.012 187.692 148.822 187.456 148.822L0.426008 148.887C0.189654 148.887 -8.23351e-05 149.077 2.68039e-08 149.313Z" fill="#CCCCCC"/>
<path d="M144.627 147.245L141.388 147.246L139.843 134.757L144.623 134.756L144.627 147.245Z" fill="#A0616A"/>
<path d="M133.53 147.176C133.429 147.346 133.376 147.894 133.376 148.091C133.376 148.698 133.869 149.19 134.476 149.19L144.506 149.186C144.92 149.186 145.256 148.85 145.256 148.436L145.256 148.019C145.256 148.019 145.751 146.764 144.729 145.218C144.729 145.218 143.46 146.429 141.562 144.533L141.002 143.52L136.954 146.482L134.709 146.759C134.218 146.82 133.782 146.75 133.53 147.176Z" fill="#2F2E41"/>
<path d="M132.208 136.564L129.14 137.601L123.675 126.265L128.203 124.733L132.208 136.564Z" fill="#A0616A"/>
<path d="M121.673 140.051C121.632 140.244 121.757 140.78 121.821 140.967C122.015 141.542 122.639 141.85 123.214 141.656L132.715 138.441C133.108 138.308 133.318 137.882 133.185 137.49L133.051 137.095C133.051 137.095 133.119 135.747 131.655 134.61C131.655 134.61 130.841 136.164 128.436 134.975L127.581 134.195L124.694 138.298L122.657 139.279C122.211 139.493 121.776 139.567 121.673 140.051Z" fill="#2F2E41"/>
<path d="M127.205 64.1134L120.923 84.9132L113.506 103.622L125.248 130.341L129.601 128.405L124.392 103.861L135.316 87.2056L140.414 139.198L144.768 138.955L150.673 76.1969L151.515 62.5331L127.205 64.1134Z" fill="#2F2E41"/>
<path d="M146.178 18.0376L136.986 19.7336L136.262 23.845L130.699 26.5071L127.807 56.7373C127.807 56.7373 122.971 63.0266 126.842 64.9599L151.515 62.533C151.515 62.533 152.723 58.0616 151.514 57.6374C150.304 57.2131 150.3 46.5325 150.3 46.5325L155.856 24.5638L147.631 21.6646L146.178 18.0376Z" fill="#313638"/>
<path d="M140.756 17.9583C144.856 17.9583 148.179 14.6361 148.179 10.5379C148.179 6.43974 144.856 3.11752 140.756 3.11752C136.657 3.11752 133.334 6.43974 133.334 10.5379C133.334 14.6361 136.657 17.9583 140.756 17.9583Z" fill="#A0616A"/>
<path d="M145.672 11.6392C145.079 11.9634 145.641 13.5111 145.271 13.6449C144.843 13.7995 143.283 12.0242 143.264 10.0357C143.258 9.43382 143.397 9.14483 143.263 8.43126C143.089 7.49786 142.554 6.39694 142.059 6.42617C141.765 6.44349 141.479 6.85835 141.457 7.22858C141.427 7.74746 141.932 7.95169 141.859 8.23119C141.721 8.76357 139.604 9.13112 138.85 8.23223C138.259 7.52752 138.712 6.29022 138.448 6.22686C138.253 6.18016 138.044 6.86138 137.245 7.63113C136.944 7.92115 136.496 8.35246 136.242 8.23314C135.875 8.0607 136.142 6.84546 136.041 6.82935C135.957 6.816 135.905 7.67017 135.44 8.43396C134.842 9.41524 133.608 10.1716 133.033 9.83865C132.68 9.63468 132.652 9.0668 132.631 8.63549C132.587 7.72684 131.266 5.63676 131.607 4.66473C132.303 2.68634 133.495 4.08092 134.034 3.42068C134.763 2.52688 135.418 3.00743 136.641 2.01592C137.836 1.04732 137.846 0.0737835 138.646 0.00971672C139.367 -0.0479778 139.623 0.720437 140.452 0.610744C141.154 0.517819 141.307 -0.0781675 141.856 0.00860335C142.359 0.0880425 142.392 0.613075 143.06 0.810391C143.487 0.936362 143.58 0.754032 144.063 0.810044C145.068 0.926593 145.743 1.84137 145.869 2.01272C146.356 2.67332 146.167 2.95189 146.672 3.61685C147.107 4.19029 148.072 3.94678 148.434 4.23318C149.62 5.16901 150.129 6.89487 150.139 8.86193C150.146 10.2377 149.967 10.9329 149.566 12.6694C149.262 13.9881 147.854 15.6921 147.078 16.452C146.869 16.6559 146.285 17.2278 145.874 17.054C145.485 16.8894 145.473 16.1492 145.473 16.0514C145.471 15.7153 145.56 15.2993 146.274 14.2462C147.024 13.14 147.322 13.0137 147.277 12.6414C147.197 11.9834 146.144 11.3809 145.672 11.6392Z" fill="#2F2E41"/>
<path d="M119.781 80.8209C119.55 82.7551 120.361 84.4421 121.592 84.5891C122.823 84.736 124.008 83.2873 124.239 81.3532C124.34 80.5065 124.242 79.7073 123.996 79.0638L124.872 70.8561L121.01 70.5271L120.557 78.6532C120.166 79.2207 119.882 79.9743 119.781 80.8209Z" fill="#A0616A"/>
<path d="M130.881 26.3118C130.881 26.3118 128.88 26.3403 127.555 28.9266C126.851 30.3009 123.086 56.0009 123.086 56.0009L119.617 77.0541L125.526 77.0838L130.131 57.146L134.004 45.5824L130.881 26.3118Z" fill="#313638"/>
<path d="M147.51 77.7316C146.944 79.5955 147.447 81.3983 148.634 81.7583C149.82 82.1183 151.241 80.8992 151.807 79.0353C152.054 78.2194 152.097 77.4152 151.967 76.7386L154.266 68.8106L150.522 67.8115L148.653 75.733C148.169 76.2234 147.758 76.9157 147.51 77.7316Z" fill="#A0616A"/>
<path d="M151.623 24.928C151.623 24.928 154.525 22.7505 156.945 26.1353C159.366 29.5201 160.343 57.3306 160.343 57.3306L153.575 74.5031L148.495 72.812L153.326 51.7709L144.854 35.8128L151.623 24.928Z" fill="#313638"/>
<path d="M78.2365 137.625C92.6738 137.625 104.377 125.924 104.377 111.491C104.377 97.0578 92.6738 85.3573 78.2365 85.3573C63.7993 85.3573 52.0956 97.0578 52.0956 111.491C52.0956 125.924 63.7993 137.625 78.2365 137.625Z" fill="#6C63FF"/>
<path d="M78.2412 127.511C79.5668 127.511 80.6414 126.437 80.6414 125.112C80.6414 123.787 79.5668 122.712 78.2412 122.712C76.9157 122.712 75.8411 123.787 75.8411 125.112C75.8411 126.437 76.9157 127.511 78.2412 127.511Z" fill="white"/>
<path d="M78.231 95.4707C78.0105 96.9353 78.4055 97.2418 78.4077 103.556C78.4099 109.87 79.7204 118.336 78.2389 118.337C76.7574 118.337 76.2155 100.865 71.071 99.3192C65.0224 97.5011 78.9447 90.7294 78.231 95.4707Z" fill="white"/>
<path d="M43.1516 124.834L40.7898 129.822C43.645 127.776 48.1047 126.011 51.6536 125.066C48.3469 123.469 44.3008 120.895 41.8835 118.346L43.2419 123.617C27.316 120.374 15.8793 108.16 15.8745 94.1688L15.2992 93.971C15.3043 108.585 26.5827 121.523 43.1516 124.834Z" fill="#3F3D56"/>
</g>
<defs>
<clipPath id="clip0_170_1087">
<rect width="188" height="150" fill="white"/>
</clipPath>
</defs>
</svg>
