<svg width="300" height="200" viewBox="0 0 300 200" fill="none" xmlns="http://www.w3.org/2000/svg">
<g clip-path="url(#clip0_332_57)">
<path d="M95.7062 71.2785L93.8039 71.9341C93.78 71.822 93.7522 71.7098 93.7203 71.5977C93.4736 70.7371 93.3621 72.2836 92.7214 71.7098C92.7672 72.4518 91.7822 64.8251 91.6867 65.5585C91.6469 65.8669 91.9911 70.9765 91.9254 71.2785L77.1525 71.4316C77.2361 69.8894 76.478 70.4826 75.8074 69.1216C75.4114 70.4006 75.3497 69.4732 74.7229 70.6314C74.4602 71.121 74.1797 71.5912 73.8772 72.0506C73.7319 72.2771 73.5787 72.4992 73.4215 72.7193L73.2205 72.7883L72.2256 51.651C72.2256 44.6822 77.7973 41.298 82.175 45.8275C84.5011 48.2341 90.1903 45.0833 91.5016 47.3653C92.811 49.6494 93.3184 52.8028 93.3184 56.2883L95.7062 71.2785Z" fill="#2F2E41"/>
<path d="M72.4106 191.339L75.6156 191.421L77.4021 175.814L72.6724 175.693L72.4106 191.339Z" fill="#FFB7B7"/>
<path d="M83.4065 198.587C83.4065 199.174 83.0223 199.649 82.5483 199.649H76.1867C76.1867 199.649 75.5606 196.922 73.0082 195.748L72.832 199.649H69.5503L69.9479 193.376C69.9479 193.376 69.07 190.02 70.8932 188.304C72.7164 186.588 71.2397 186.827 71.2397 186.827L71.9569 182.944L76.9159 183.576L76.9524 189.671L79.359 195.721L82.8889 197.611C83.2031 197.78 83.4065 198.163 83.4065 198.587Z" fill="#2F2E41"/>
<path d="M82.1616 188.796L85.2425 189.757L90.6243 175.152L86.0778 173.734L82.1616 188.796Z" fill="#FFB7B7"/>
<path d="M91.1006 198.831C90.9632 199.398 90.4802 199.753 90.0217 199.622L83.8684 197.873C83.8684 197.873 83.9014 195.062 81.7073 193.225L80.6235 196.95L77.4492 196.047L79.3025 190.088C79.3025 190.088 79.2391 186.601 81.4043 185.443C83.5695 184.284 82.0852 184.109 82.0852 184.109L83.6879 180.551L88.3367 182.526L86.945 188.432L87.8564 194.946L90.8283 197.745C91.0928 197.994 91.1998 198.421 91.1006 198.831Z" fill="#2F2E41"/>
<path d="M89.9357 65.5721L80.1852 66.6505L74.0166 105.043L92.7215 108.278L89.9357 65.5721Z" fill="#6C63FF"/>
<path d="M71.2308 72.6898L72.2257 97.7094L63.4702 114.317L69.8378 120.572C69.8378 120.572 81.5782 95.3369 81.9761 88.4349C82.3741 81.5329 80.0852 67.2733 80.0852 67.2733L71.2308 72.6898Z" fill="#2F2E41"/>
<path d="M99.0892 72.6898L98.0943 97.7094L106.85 114.317L93.3186 121.004C93.3186 121.004 88.7418 95.3369 88.3438 88.4349C87.9459 81.5329 90.2348 67.2733 90.2348 67.2733L99.0892 72.6898Z" fill="#2F2E41"/>
<path d="M75.2105 102.67L70.6337 103.317L68.0469 133.298L71.6287 178.69H77.4886L81.7771 128.121L89.3386 147.102L83.8061 178.69L89.3386 179.302L100.482 146.455L92.7215 108.278L75.2105 102.67Z" fill="#2F2E41"/>
<path d="M93.994 129.736C94.2105 128.909 94.5813 128.204 95.0227 127.702L96.6264 119.688L100.122 120.627L98.1189 128.655C98.2506 129.334 98.2243 130.145 98.0078 130.971C97.5132 132.859 96.2137 134.113 95.1053 133.772C93.997 133.43 93.4994 131.623 93.994 129.736Z" fill="#FFB6B6"/>
<path d="M94.4775 71.0691C94.4775 71.0691 100.932 70.7128 101.402 75.3519C101.872 79.991 103.375 106.412 103.375 106.412L99.8901 124.246L94.9203 123.497L97.1165 100.797L94.4775 71.0691Z" fill="#2F2E41"/>
<path d="M39.1598 84.9262C39.8944 85.2566 40.4993 85.7395 40.9101 86.275L48.0916 88.9434L46.8202 92.6103L39.6722 89.5087C39.0322 89.5717 38.2897 89.4485 37.5551 89.1181C35.8769 88.3633 34.8756 86.813 35.3188 85.6555C35.7619 84.4979 37.4816 84.1714 39.1598 84.9262Z" fill="#FFB6B6"/>
<path d="M80.1674 73.7986L63.7842 97.7691L44.5796 92.0371L45.4146 86.6068L60.0382 89.6089L68.1965 76.0143C70.8605 70.4327 76.1111 69.3086 80.1674 73.7986Z" fill="#2F2E41"/>
<path d="M84.3423 63.3881C88.3107 63.3881 91.5278 59.901 91.5278 55.5996C91.5278 51.2981 88.3107 47.8111 84.3423 47.8111C80.3738 47.8111 77.1567 51.2981 77.1567 55.5996C77.1567 59.901 80.3738 63.3881 84.3423 63.3881Z" fill="#FFB7B7"/>
<path d="M94.9102 55.3177H92.4894L91.8319 54.3572C91.5125 54.3572 91.2772 55.2806 90.9715 55.2101C90.039 54.9951 89.1831 54.4692 88.4819 53.736C88.4227 53.6741 88.3613 53.6145 88.2979 53.5577L88.2989 53.5753C88.3549 54.5249 87.6323 55.3177 86.7545 55.3177H82.0863C80.8118 55.3177 79.8822 56.6249 80.2067 57.9608L79.7871 74.2981C79.7871 70.9636 66.1763 53.9373 75.4094 47.1216C77.5469 45.5437 79.0986 45.8275 82.175 45.8275C86.9034 43.094 92.8519 45.6449 94.3883 51.2096C94.7325 52.4561 94.9102 53.8343 94.9102 55.3177Z" fill="#2F2E41"/>
<path d="M233.93 55.3716C233.584 54.977 233.342 50.6332 232.913 50.3431C233.085 50.9659 233.006 55.6114 232.981 56.2612C229.213 59.0462 226.658 51.8903 223.992 51.8903C219.164 51.8903 213.286 40.1044 213.286 34.871C213.286 29.6375 219.369 26.858 223.813 24.8141C229.702 22.1064 235.085 28.1411 235.768 33.3237C237.552 46.8619 236.082 52.78 233.93 55.3716Z" fill="#2F2E41"/>
<path d="M222.37 44.5857C226.339 44.5857 229.556 41.0987 229.556 36.7972C229.556 32.4958 226.339 29.0087 222.37 29.0087C218.402 29.0087 215.185 32.4958 215.185 36.7972C215.185 41.0987 218.402 44.5857 222.37 44.5857Z" fill="#A0616A"/>
<path d="M211.914 35.1064L215.495 35.5882L216.375 35.017L216.473 35.7198C216.977 35.7876 217.488 35.5759 217.793 35.1355C218.036 34.7841 218.335 34.4785 218.676 34.2427C218.631 34.4988 218.596 34.7568 218.573 35.0155C218.523 35.5555 218.873 36.0427 219.37 36.1095L224.64 36.8186C225.905 36.9888 226.679 38.4102 226.205 39.6926C226.205 39.6926 227.486 36.6919 228.631 37.5786C231.129 39.5126 238.325 35.4171 232.198 29.5764C230.256 27.7251 228.684 27.7996 225.631 27.3889C221.249 24.0449 215.056 25.7821 212.899 31.0993C212.416 32.2903 212.083 33.6343 211.914 35.1064Z" fill="#2F2E41"/>
<path d="M227.756 84.0156H206.777C208.536 79.7625 209.617 75.7121 207.927 72.4902L227.756 71.2442C226.765 75.5936 226.644 79.862 227.756 84.0156Z" fill="#A0616A"/>
<path d="M225.17 46.3244L216.836 45.7014L213.387 50.3739L211.639 50.7184C209.018 51.2349 207.152 53.7699 207.269 56.6543L207.949 73.4078L227.869 74.9822L232.641 53.1656L226.894 50.6854L225.17 46.3244Z" fill="#E6E6E6"/>
<path d="M228.792 183.446L225.377 183.533L223.474 166.904L228.513 166.775L228.792 183.446Z" fill="#A0616A"/>
<path d="M217.076 191.168C217.076 191.793 217.486 192.3 217.991 192.3H224.769C224.769 192.3 225.436 189.394 228.155 188.143L228.343 192.3H231.84L231.416 185.616C231.416 185.616 232.351 182.04 230.409 180.212C228.466 178.384 230.04 178.638 230.04 178.638L229.276 174.501L223.992 175.175L223.953 181.669L221.389 188.115L217.628 190.129C217.293 190.308 217.076 190.716 217.076 191.168Z" fill="#2F2E41"/>
<path d="M216.302 183.059L212.887 183.146L210.984 166.517L216.023 166.388L216.302 183.059Z" fill="#A0616A"/>
<path d="M204.586 190.781C204.586 191.406 204.996 191.913 205.501 191.913H212.279C212.279 191.913 212.946 189.007 215.666 187.756L215.853 191.913H219.35L218.926 185.229C218.926 185.229 219.862 181.653 217.919 179.825C215.977 177.997 217.55 178.251 217.55 178.251L216.786 174.114L211.502 174.788L211.463 181.282L208.899 187.728L205.138 189.742C204.803 189.921 204.586 190.33 204.586 190.781Z" fill="#2F2E41"/>
<path d="M207.576 80.9006L204.721 90.9575L203.651 131.959L211.07 169.928L216.79 169.073L218.17 116.694L221.72 169.073L229.768 168.743C229.768 168.743 236.482 92.8915 228.032 83.5571L227.269 80.0296L207.576 80.9006Z" fill="#2F2E41"/>
<path d="M202.37 65.3778L190.596 74.6907L178.026 79.9923L177.153 76.7753L187.453 70.1494L200.245 59.5255L202.37 65.3778Z" fill="#A0616A"/>
<path d="M176.343 81.3436C178.042 80.424 179.01 78.7923 178.507 77.699C178.003 76.6057 176.217 76.4649 174.519 77.3845C172.82 78.3041 171.851 79.9358 172.355 81.0291C172.859 82.1223 174.644 82.2631 176.343 81.3436Z" fill="#A0616A"/>
<path d="M209.906 52.0925C209.906 52.0925 213.563 57.5355 210.92 59.6764C208.276 61.8172 200.266 71.8631 200.266 71.8631L193.646 63.9711L209.906 52.0925Z" fill="#E6E6E6"/>
<path d="M38.2474 0C28.2945 0 20.2261 8.74548 20.2261 19.5336C20.2261 28.6061 27.5644 40.4204 34.4456 46.2369C35.0639 46.7596 35.7546 47.1235 36.4745 47.3409L37.1503 49.978C37.2908 50.5263 37.7513 50.9057 38.2763 50.9057H38.3619C38.9097 50.9057 39.3839 50.4933 39.5028 49.9138L40.0583 47.2042C40.6591 46.9729 41.2341 46.6367 41.7572 46.1927C49.4577 39.6567 56.2688 28.913 56.2688 19.5336C56.2688 8.74548 48.2003 0 38.2474 0Z" fill="#6C63FF"/>
<path d="M41.251 48.538C39.0855 54.4188 37.3438 53.0789 35.79 48.538V47.3542H41.251L41.251 48.538Z" fill="#3F3D56"/>
<path d="M38.7936 47.9491L38.6708 59.1098L38.6653 59.4887L38.6407 98.2599V100.059L38.6353 100.628H38.0864L38.0919 100.089V98.2599L38.1192 59.4887L38.1492 56.8161L38.2475 47.9431L38.7936 47.9491Z" fill="#3F3D56"/>
<path d="M38.6954 100.628H38.1438L38.0919 100.089L38.081 98.2599L37.8598 59.4887L36.7349 47.881L37.2782 47.8188L38.1493 56.8161L38.4087 59.4887L38.5179 98.2599L38.5206 98.8311L38.6407 100.059L38.6954 100.628Z" fill="#3F3D56"/>
<path d="M40.3062 47.881L39.1812 59.4887L38.8645 98.2599L38.8454 100.628H38.3457L38.5205 98.8311L38.5232 98.2599L38.6324 59.4887L38.6706 59.1098L39.7628 47.8188L40.3062 47.881Z" fill="#3F3D56"/>
<path d="M267.812 52.032C261.823 46.7616 253.026 47.7516 248.164 54.2432C244.075 59.7024 243.165 70.6973 244.684 77.8411C244.821 78.4831 245.073 79.0678 245.408 79.5798L244.626 81.5245C244.463 81.9288 244.569 82.401 244.885 82.679L244.937 82.7243C245.266 83.0144 245.738 83.0174 246.07 82.7316L247.626 81.3953C248.092 81.5743 248.589 81.6764 249.104 81.6862C256.683 81.831 265.624 78.9728 269.852 73.3289C274.714 66.8373 273.801 57.3024 267.812 52.032Z" fill="#FF6584"/>
<path d="M247.742 82.8295C241.844 87.0475 242.188 84.5298 244.456 79.9377L244.99 79.2253L248.276 82.1171L247.742 82.8295Z" fill="#3F3D56"/>
<path d="M246.529 81.1738L241.425 87.8245L241.251 88.0496L223.761 111.367L222.95 112.449L222.691 112.788L222.36 112.498L222.606 112.176L223.431 111.076L240.922 87.7604L242.145 86.1681L246.203 80.881L246.529 81.1738Z" fill="#3F3D56"/>
<path d="M222.727 112.82L222.395 112.528L222.607 112.176L223.424 111.07L240.766 87.623L245.321 80.0426L245.676 80.2929L242.145 86.1681L241.096 87.9137L223.687 111.301L223.431 111.647L222.95 112.449L222.727 112.82Z" fill="#3F3D56"/>
<path d="M247.47 81.9338L241.561 88.3228L223.896 111.485L222.817 112.9L222.517 112.635L223.431 111.647L223.691 111.304L241.231 88.0322L241.425 87.8245L247.171 81.6087L247.47 81.9338Z" fill="#3F3D56"/>
<path d="M156.71 17.847C149.057 21.9146 145.895 31.9367 149.648 40.232C152.804 47.2082 162.556 53.2935 169.871 54.9537C170.528 55.1029 171.186 55.1005 171.815 54.9734L173.252 56.725C173.551 57.0891 174.037 57.1927 174.44 56.9781L174.506 56.9431C174.927 56.7193 175.149 56.2084 175.038 55.7142L174.523 53.4036C174.905 52.9802 175.23 52.4867 175.478 51.9316C179.125 43.7588 180.625 32.714 177.362 25.5019C173.61 17.2066 164.363 13.7794 156.71 17.847Z" fill="#6C63FF"/>
<path d="M175.904 53.9418C175.788 57.0476 174.917 58.7641 171.705 56.1737L171.293 55.2634L175.493 53.0315L175.904 53.9418Z" fill="#3F3D56"/>
<path d="M173.81 54.4933L177.598 63.1254L177.725 63.4189L174.824 95.0155L175.45 96.3992L175.644 96.8384L175.222 97.0627L175.038 96.6463L174.402 95.2398L177.305 63.6421L176.399 61.5748L173.388 54.7119L173.81 54.4933Z" fill="#3F3D56"/>
<path d="M175.69 96.8138L175.266 97.0392L175.039 96.6463L174.394 95.2443L177.106 63.7481L172.203 55.2823L172.599 55.0125L176.399 61.5748L177.528 63.5238L174.73 95.0658L174.931 95.5039L175.45 96.3992L175.69 96.8138Z" fill="#3F3D56"/>
<path d="M174.949 53.8227L178.122 63.208L174.996 94.924L175.805 96.7525L175.421 96.9567L174.931 95.5039L174.734 95.0635L177.7 63.4323L177.598 63.1254L174.51 53.997L174.949 53.8227Z" fill="#3F3D56"/>
<path d="M0 199.54C0 199.795 0.189146 200 0.424683 200H144.342C144.578 200 144.767 199.795 144.767 199.54C144.767 199.284 144.578 199.079 144.342 199.079H0.424683C0.189146 199.079 0 199.284 0 199.54Z" fill="#CCCCCC"/>
<path d="M155.233 191.804C155.233 192.059 155.423 192.264 155.658 192.264H299.575C299.811 192.264 300 192.059 300 191.804C300 191.548 299.811 191.343 299.575 191.343H155.658C155.423 191.343 155.233 191.548 155.233 191.804Z" fill="#CCCCCC"/>
<path d="M235.171 71.3243L234.984 87.121L231.358 101.203L228.459 100.031L229.746 87.1233L229.577 69.6563L235.171 71.3243Z" fill="#A0616A"/>
<path d="M231.345 103.473C231.686 101.449 231.062 99.6296 229.953 99.4107C228.844 99.1918 227.669 100.656 227.329 102.681C226.989 104.706 227.612 106.524 228.721 106.743C229.83 106.962 231.005 105.498 231.345 103.473Z" fill="#A0616A"/>
<path d="M230.771 52.5153C230.771 52.5153 236.982 52.608 236.977 56.1848C236.972 59.7615 236.291 73.0732 236.291 73.0732L226.494 74.0812L230.771 52.5153Z" fill="#E6E6E6"/>
</g>
<defs>
<clipPath id="clip0_332_57">
<rect width="300" height="200" fill="white"/>
</clipPath>
</defs>
</svg>
