<svg width="12" height="12" viewBox="0 0 12 12" fill="none" xmlns="http://www.w3.org/2000/svg">
<path d="M1.5 0C0.672656 0 0 0.76875 0 1.71429V10.2857C0 11.2313 0.672656 12 1.5 12H10.5C11.3273 12 12 11.2313 12 10.2857V4.28571C12 3.34018 11.3273 2.57143 10.5 2.57143H1.875C1.66875 2.57143 1.5 2.37857 1.5 2.14286C1.5 1.90714 1.66875 1.71429 1.875 1.71429H10.5C10.9148 1.71429 11.25 1.33125 11.25 0.857143C11.25 0.383036 10.9148 0 10.5 0H1.5ZM9.75 6.42857C9.94891 6.42857 10.1397 6.51888 10.2803 6.67962C10.421 6.84037 10.5 7.05839 10.5 7.28571C10.5 7.51304 10.421 7.73106 10.2803 7.89181C10.1397 8.05255 9.94891 8.14286 9.75 8.14286C9.55109 8.14286 9.36032 8.05255 9.21967 7.89181C9.07902 7.73106 9 7.51304 9 7.28571C9 7.05839 9.07902 6.84037 9.21967 6.67962C9.36032 6.51888 9.55109 6.42857 9.75 6.42857Z" fill="white"/>
</svg>
